<svg version="1.1" id="Calque_1" xmlns="http://www.w3.org/2000/svg" xmlns:xlink="http://www.w3.org/1999/xlink" x="0px" y="0px" width="36px" height="23px" viewBox="0 0 36 23" shape-rendering="optimizeSpeed">
	<rect x="13" fill="#CCCCFF" width="9" height="6" />
    <g fill="#666699">
        <rect id="m" x="14" width="1" height="6" />
        <use x="2" xlink:href="#m" />
        <use x="4" xlink:href="#m" />
        <use x="6" xlink:href="#m" />
    </g>
    <use x="8" xlink:href="#m" fill="#A3A3D7" />
    <path id="l" d="M10,15L10 20 6 20 6 23 5 23 5 22 4 22 4 21 3 21 3 20 2 20 2 19 1 19 1 18 0 18 0 17 1 17 1 16 2 16 2 15 3 15 3 14 4 14 4 13 5 13 5 12 6 12 6 15 z" />
    <use xlink:href="#l" transform="rotate(180)" y="-23" x="-36" fill="#333366"/>
    <use xlink:href="#l" y="-12" fill="#333366" />
    <use xlink:href="#l" transform="rotate(180)" y="-35" x="-36"/>
    <path fill="#A3A3D7" d="M32,2L31 2 31 4 27 4 27 7 31 7 31 9 32 9 32 8 33 8 33 7 34 7 34 6 35 6 35 5 34 5 34 4 33 4 33 3 32 3 z" />
    <path fill="#A3A3D7" d="M4,2L5 2 5 4 9 4 9 7 5 7 5 9 4 9 4 8 3 8 3 7 2 7 2 6 1 6 1 5 2 5 2 4 3 4 3 3 4 3 z" />
</svg>